<?xml version="1.0" encoding="UTF-8"?>
<!-- Generator: Adobe Illustrator 18.0.0, SVG Export Plug-In . SVG Version: 6.00 Build 0)  -->
<!DOCTYPE svg PUBLIC "-//W3C//DTD SVG 1.1//EN" "http://www.w3.org/Graphics/SVG/1.1/DTD/svg11.dtd">
<svg version="1.1" id="Layer_1" xmlns="http://www.w3.org/2000/svg" xmlns:xlink="http://www.w3.org/1999/xlink" x="0px" y="0px" viewBox="0 0 900 216" enable-background="new 0 0 900 216" xml:space="preserve">
<g id="Old_Logo" display="none">
	<g display="inline">
		<polygon points="543.2,1023.3 543.2,1062.3 582.8,1062.3 622,1062.3 622,1023.3 582.8,1023.3   "/>
		<polygon points="543.2,1102.1 543.2,1141 582.8,1141 622,1141 622,1102.1 582.8,1102.1   "/>
		<polygon points="661.5,944.6 504,944.6 504,984 661.5,984 661.5,1180.5 504,1180.5 504,1219.8 661.5,1219.8 700.8,1219.8     700.8,944.6   "/>
		<polygon points="307.2,984 464.8,984 464.8,944.6 307.2,944.6 268,944.6 268,1219.8 307.2,1219.8 464.8,1219.8 464.8,1180.5     307.2,1180.5   "/>
		<rect x="464.7" y="984" width="39.2" height="196.8"/>
	</g>
	<g display="inline">
		<g>
			<path d="M146.8,1254.6h33.5c23,0,37,14,37,37.5c0,11.2-3,21-8.8,27.2c-6.2,7-14.8,10-26.7,10h-35v-12.2h5.7v-50.5h-5.8V1254.6z      M180.5,1317.3c12.7,0,20-9,20-24.2c0-9.8-2-16.2-6.8-20.8c-3.5-3.5-9.5-5.5-16.2-5.5h-9.8v50.5H180.5z"/>
			<path d="M228.5,1272.3H248v45.8h4.8v11h-24.2v-11h5.8v-34.5h-5.5L228.5,1272.3L228.5,1272.3z M232.8,1251H248v13.5h-15.2V1251z"/>
			<path d="M303,1318.5c-2.2,2.8-7.2,8.2-17.2,8.2c-13.5,0-23-11.5-23-27.7c0-16.5,9.8-28,24-28c5.5,0,9.8,2,16.2,7.5v-6.2h19.2v11     H317v44c0,13.8-10.2,21.8-27.2,21.8c-8.3,0-15-2-19.5-6c-3.5-3-5.2-5.8-6.7-12.5h13.8c2,5.2,5.8,7.5,12.2,7.5     c8.2,0,13.5-4.2,13.5-10.8V1318.5L303,1318.5z M277.2,1299.6c0,10.2,4.5,16,12.5,16c7.5,0,13.2-6.8,13.2-16.2     c0-9-5.2-15.8-12.2-15.8C282.5,1283.3,277.2,1289.8,277.2,1299.6z"/>
			<path d="M333.5,1272.3h19.2v45.8h4.8v11h-24.2v-11h5.8v-34.5h-5.5V1272.3L333.5,1272.3z M337.8,1251H353v13.5h-15.3V1251z"/>
			<path d="M373.2,1254.1h14v18.2h11.2v11h-11.2v29.5c0,4,2,6,6.7,6h4.5v10.5c-3.3,0.5-6.2,0.8-8.5,0.8c-6,0-16.5,0-16.5-11v-35.5     h-7v-11h7.2L373.2,1254.1L373.2,1254.1z"/>
			<path d="M458.8,1318.5h5v11H446v-6.8c-6,6-10.3,7.7-17.2,7.7c-11.5,0-20.2-7.5-20.2-17.7c0-16.8,18.8-18.5,37-20.2     c0-8.8-2.2-11-10.5-11c-6,0-9.8,3.2-10.2,8.5l-14-0.2c0.8-11.5,9.7-18.8,23.2-18.8c15.8,0,24.2,7.3,24.2,20.2L458.8,1318.5     L458.8,1318.5z M445.5,1302.3c-13.5,1.2-22.2,2.5-22.2,10.2c0,4.8,3.8,7.7,9.2,7.7c7.2,0,12.8-5.5,12.8-12.5L445.5,1302.3     L445.5,1302.3z"/>
			<path d="M474.8,1251h19.5v67.5h5.5v11h-25v-11h5.5v-56.5h-5.5V1251z"/>
			<path d="M545.5,1254.6h28.8c12.8,0,17.5,0.2,21.2,2c5,2,11.5,8.2,11.5,18c0,7.5-2.5,11.2-9.8,15.2c8.5,3.5,12.5,8.8,12.5,18.8     c0,12.5-9.7,21-24,21h-40v-12.3h6v-50.5H546L545.5,1254.6L545.5,1254.6z M566.2,1266.6v18.2H581c6.5,0,10.8-4,10.8-9.5     c0-5-5-8.5-11.8-8.5L566.2,1266.6L566.2,1266.6z M566.2,1296.6v20.5H582c6.8,0,12-4.2,12-10c0-6.2-5.2-10.5-13.5-10.5H566.2z"/>
			<path d="M621.5,1272.3H641v45.8h4.8v11h-24.2v-11h5.8v-34.5h-5.5L621.5,1272.3L621.5,1272.3z M625.5,1251h15.2v13.5h-15.3     L625.5,1251L625.5,1251z"/>
			<path d="M656.8,1251h19.5v28c5.8-5.8,10-8,16.2-8c14.2,0,24.5,12.3,24.5,29.5c0,18.2-9.5,30.5-23.8,30.5c-7,0-11-1.8-17.5-7.5     v6.2h-19.3v-11h6v-56.5H657L656.8,1251L656.8,1251z M675.8,1301c0,11.5,4.7,17.8,13.8,17.8c7.8,0,13-7.3,13-18.2     c0-11.2-5-18.2-13-18.2C680.8,1282.8,675.8,1289.6,675.8,1301z"/>
			<path d="M727.2,1251h19.5v67.5h5.5v11h-25v-11h5.5v-56.5h-5.5V1251L727.2,1251z"/>
			<path d="M815.8,1310.8c-2.5,12.2-13,20-26.8,20c-16,0-27.8-12.5-27.8-29.8c0-17.2,11.8-30,27.8-30c9,0,17,4.3,22,11.5     c5.3,8,5.5,15.5,5.8,21.2h-41c1.2,14.8,11,15.5,13.8,15.5c5.8,0,9.3-2.7,11.5-8.5C801,1310.8,815.8,1310.8,815.8,1310.8z      M801.2,1294.1c-1-7.3-5.2-11.2-12-11.2c-6.2,0-11,4.2-12.8,11.2H801.2z"/>
		</g>
	</g>
	<g display="inline">
		<g>
			<path d="M289,1380.3h35.5c14.2,0,24,9.8,24,24c0,13.8-10,23.2-24.2,23.2h-13.8v15.2h6v12.3h-27.2v-12.3h6v-50.5h-6v-12     L289,1380.3L289,1380.3z M310.2,1392.3v22.8h10.2c7.5,0,12.5-4.8,12.5-11.5c0-7-5.3-11.5-13.2-11.5L310.2,1392.3L310.2,1392.3z"/>
			<path d="M378,1407.3c3.8-7.2,7.8-10.2,14.2-10.2c2,0,3.5,0.2,6.5,0.8v13.2c-2.5-0.5-4.5-0.7-7-0.7c-7.5,0-13.8,5.2-13.8,11.8     v22.2h6.8v11h-26.2v-11h5.5v-34.8h-5.5v-11H378V1407.3z"/>
			<path d="M463.8,1426.6c0,17-12,30-28,30c-16.5,0-28.8-12.8-28.8-30c0-17,12.2-30,28.8-30C451.2,1396.6,463.8,1410.1,463.8,1426.6     z M421.8,1426.3c0,10.8,5.2,18,13.5,18c8.3,0,13.8-7,13.8-18c0-10.2-5.8-17.5-13.8-17.5C427.2,1408.8,421.8,1416.3,421.8,1426.3z     "/>
			<path d="M475.5,1398.5h19.2v63c0,9.5-4.2,13.5-14.8,13.5c-3,0-6-0.2-9.2-0.5v-10.8h3.8c5,0,6.2-1.2,6.2-6.5v-47.5h-5.2V1398.5     L475.5,1398.5z M479.5,1376.6h15.3v13.2h-15.3V1376.6z"/>
			<path d="M563.5,1436.6c-2.5,12.2-13,20-26.8,20c-16,0-27.8-12.5-27.8-29.8s11.8-30,27.8-30c9,0,17,4.2,22,11.5     c5.2,8,5.5,15.5,5.8,21.2h-41c1.2,14.8,11,15.5,13.8,15.5c5.8,0,9.2-2.8,11.5-8.5L563.5,1436.6L563.5,1436.6z M549,1419.8     c-1-7.2-5.2-11.2-12-11.2c-6.2,0-11,4.3-12.8,11.2H549z"/>
			<path d="M631,1434.6c-3.2,14-13.5,22.2-27.2,22.2c-16.2,0-28-12.5-28-30s10.8-29.8,26.2-29.8c6.5,0,10.8,2,16,7.5v-6h12v21h-12.5     c-1.2-3.5-3.2-6.5-5.5-8.2s-5-2.8-8-2.8c-8,0-13.8,7.3-13.8,17.3c0,11.5,5.5,18.8,14,18.8c6.2,0,10.5-3.5,12.8-10.2L631,1434.6     L631,1434.6z"/>
			<path d="M647.5,1380.3h14v18.2h11.2v11h-11.2v29.5c0,4,2,6,6.8,6h4.5v10.5c-3.2,0.5-6.2,0.8-8.5,0.8c-6,0-16.5,0-16.5-11v-35.5     h-7v-11.2h7.2L647.5,1380.3L647.5,1380.3z"/>
		</g>
	</g>
</g>
<g id="Layer_1_1_">
	<g>
		<g>
			<g>
				<path fill="#CA4316" d="M372.5,33H399c18.3,0,29,11,29,29.7c0,8.8-2.5,16.5-7,21.5c-5,5.5-11.5,8-21.2,8h-27.5v-9.7h4.5V43h-4.3      V33L372.5,33z M399.2,82.8c10,0,15.5-7.2,15.5-19.3c0-7.5-1.8-13-5.3-16.2c-2.8-2.8-7.5-4.3-12.8-4.3H389v39.7L399.2,82.8      L399.2,82.8z"/>
				<path fill="#CA4316" d="M437,47.5h15.3v36.2h3.8v8.8h-19.2v-8.8h4.5V56.2H437L437,47.5L437,47.5z M440.2,30.5h12V41h-12V30.5z"/>
				<path fill="#CA4316" d="M495.5,83.5c-1.8,2-5.8,6.8-13.5,6.8c-10.5,0-18-9-18-22s7.8-22,18.8-22c4.2,0,7.8,1.5,12.8,5.7v-5h15      v8.8h-4v34.7c0,10.7-8,17-21.5,17c-6.8,0-11.8-1.5-15.2-4.5c-2.8-2.2-4-4.5-5.5-9.7H475c1.5,4,4.5,6,9.8,6      c6.5,0,10.8-3.2,10.8-8.2V83.5L495.5,83.5z M475.5,68.5c0,8,3.5,12.5,9.7,12.5c6,0,10.3-5.5,10.3-13c0-7.2-4-12.5-9.5-12.5      C479.5,55.5,475.5,61,475.5,68.5z"/>
				<path fill="#CA4316" d="M519.8,47.5H535v36.2h3.8v8.8h-19.2v-8.8h4.5V56.2h-4.2V47.5L519.8,47.5z M523,30.5h12V41h-12V30.5z"/>
				<path fill="#CA4316" d="M551,33h11v14.3h8.8V56H562v23c0,3.2,1.7,4.7,5.2,4.7h3.5V92c-2.5,0.3-5,0.5-6.8,0.5c-4.5,0-13,0-13-8.8      v-28h-5.5V47h5.8L551,33L551,33z"/>
				<path fill="#CA4316" d="M618.2,83.5h3.8v8.8h-14V87c-4.5,4.5-8,6.2-13.5,6.2c-9,0-15.8-6-15.8-14c0-13.2,15-14.7,29.2-15.7      c0-7-1.8-8.5-8.2-8.5c-4.5,0-7.8,2.5-8,6.8l-11-0.3c0.5-9,7.8-14.7,18.5-14.7c12.5,0,19,5.7,19,15.7V83.5L618.2,83.5z M607.8,71      c-10.5,1-17.5,2-17.5,8c0,3.8,3,6.2,7.5,6.2c5.8,0,10-4.3,10-9.7V71z"/>
				<path fill="#CA4316" d="M630.8,30.5H646v53h4.2v8.8h-19.5v-8.8h4.2V39h-4.2V30.5L630.8,30.5z"/>
				<path fill="#CA4316" d="M686.5,33H709c10,0,13.8,0.3,16.8,1.5c4,1.8,9,6.5,9,14.3c0,6-2,8.8-7.5,12c6.8,2.8,9.8,7,9.8,14.7      c0,9.7-7.5,16.5-19,16.5h-31.5v-9.5h4.5V43h-4.5V33z M703,43v14.5h11.8c5,0,8.5-3,8.5-7.5c0-4-3.8-6.8-9.3-6.8L703,43L703,43z       M703,66.5v16h12.5c5.3,0,9.3-3.5,9.3-8c0-5-4.3-8.2-10.5-8.2L703,66.5L703,66.5z"/>
				<path fill="#CA4316" d="M746.2,47.5h15.2v36.2h3.8v8.8H746v-8.8h4.5V56.2h-4.2L746.2,47.5L746.2,47.5z M749.5,30.5h12V41h-12      V30.5z"/>
				<path fill="#CA4316" d="M774,30.5h15.2v22c4.5-4.5,8-6.2,12.8-6.2c11.2,0,19.2,9.5,19.2,23.2c0,14.5-7.5,24-18.8,24      c-5.5,0-8.8-1.2-13.8-6v5h-15v-8.8h4.8V39.3h-4.3L774,30.5L774,30.5z M789,70c0,9,3.8,14,10.8,14c6.2,0,10-5.7,10-14.3      c0-8.8-3.8-14.3-10-14.3C793,55.5,789,61,789,70z"/>
				<path fill="#CA4316" d="M829.8,30.5H845v53h4.2v8.8h-19.5v-8.8h4.3V39h-4.3L829.8,30.5L829.8,30.5z"/>
				<path fill="#CA4316" d="M899.2,77.8c-2,9.7-10,15.7-21,15.7c-12.5,0-21.8-9.7-21.8-23.5c0-13.5,9.3-23.5,22-23.5      c7.2,0,13.5,3.2,17.2,9c4,6.2,4.2,12.2,4.5,16.8H868c1,11.8,8.8,12.2,10.8,12.2c4.5,0,7.5-2,9-6.8H899.2L899.2,77.8z       M887.8,64.3c-0.7-5.7-4.2-8.8-9.5-8.8c-5,0-8.5,3.2-10,8.8H887.8z"/>
			</g>
		</g>
		<g display="none">
			<g display="inline">
				<path d="M372.5,467.8h28c11.2,0,18.8,7.8,18.8,19c0,10.7-8,18.2-19.2,18.2h-10.8v12.2h4.5v9.5h-21.2v-9.5h4.8v-39.5h-4.8V467.8      L372.5,467.8z M389.2,477.5v18h8c5.8,0,9.7-3.8,9.7-9c0-5.5-4-9-10.3-9C396.8,477.5,389.2,477.5,389.2,477.5z"/>
				<path d="M442.8,489c3-5.7,6.2-8,11.2-8c1.5,0,2.8,0,5,0.5V492c-2-0.3-3.5-0.5-5.5-0.5c-6,0-10.8,4.3-10.8,9.3v17.5h5.5v8.8      h-20.8v-8.8h4.2v-27.5h-4.2V482h15.2V489L442.8,489z"/>
				<path d="M510.2,504.5c0,13.5-9.5,23.5-22,23.5c-13,0-22.5-10-22.5-23.5c0-13.5,9.5-23.5,22.5-23.5      C500.5,480.8,510.2,491.2,510.2,504.5z M477.2,504c0,8.5,4.2,14.3,10.5,14.3c6.8,0,10.8-5.5,10.8-14.3c0-8-4.5-13.8-10.8-13.8      C481.5,490.2,477.2,495.8,477.2,504z"/>
				<path d="M519.5,482.3h15v49.5c0,7.5-3.2,10.8-11.5,10.8c-2.2,0-4.8,0-7.5-0.5v-8.5h3c4,0,5-1,5-5V491h-4V482.3L519.5,482.3z       M522.5,465h12v10.5h-12V465z"/>
				<path d="M588.8,512.3c-2,9.8-10,15.7-21,15.7c-12.5,0-21.8-9.7-21.8-23.5c0-13.5,9.2-23.5,22-23.5c7.2,0,13.5,3.2,17.2,9      c4,6.2,4.2,12.2,4.5,16.8h-32.2c1,11.8,8.8,12.2,10.8,12.2c4.5,0,7.5-2,9-6.8H588.8L588.8,512.3z M577.2,499      c-0.8-5.7-4.2-8.8-9.5-8.8c-5,0-8.5,3.2-10,8.8H577.2z"/>
				<path d="M642,510.2c-2.5,11-10.5,17.5-21.5,17.5c-13,0-22-9.8-22-23.8c0-13.8,8.5-23.5,20.8-23.5c5,0,8.5,1.8,12.8,6V482h9.2      v16.5h-9.8c-1-2.8-2.5-5-4.2-6.5c-1.8-1.5-3.8-2-6.5-2c-6.5,0-10.8,5.8-10.8,13.5c0,9,4.2,15,11,15c5,0,8.2-2.8,10-8      C631,510.2,642,510.2,642,510.2z"/>
				<path d="M654.8,467.8h11V482h8.8v8.8h-8.8v23c0,3.2,1.8,4.8,5.2,4.8h3.5v8.2c-2.5,0.3-5,0.5-6.8,0.5c-4.5,0-13,0-13-8.8v-27.8      h-5.5V482h5.8L654.8,467.8L654.8,467.8z"/>
			</g>
		</g>
		<g>
			<polygon fill="#CA4316" points="215.8,61.5 215.8,92.5 246.5,92.5 277.2,92.5 277.2,61.5 246.5,61.5    "/>
			<polygon fill="#CA4316" points="215.8,123 215.8,154 246.5,154 277.2,154 277.2,123 246.5,123    "/>
			<polygon fill="#CA4316" points="308,0 184.8,0 184.8,30.5 308,30.5 308,184.8 184.8,184.8 184.8,215.5 308,215.5 338.8,215.5      338.8,0    "/>
			<polygon fill="#CA4316" points="30.8,30.5 154,30.5 154,0 30.8,0 0,0 0,215.5 30.8,215.5 154,215.5 154,184.8 30.8,184.8    "/>
			<rect x="154" y="30.5" fill="#CA4316" width="30.8" height="154"/>
		</g>
	</g>
	<g>
		<path fill="#CA4316" d="M372.5,125h28.2c11.2,0,19,7.8,19,19.3c0,10.7-8,18.5-19.5,18.5h-11V175h4.7v9.7h-21.5V175h4.8v-40.3h-4.8    V125z M389.5,134.8v18h8c6,0,10-3.8,10-9c0-5.5-4-9-10.5-9H389.5L389.5,134.8z"/>
		<path fill="#CA4316" d="M426.8,122.3h15.5V176h4.2v8.8h-19.7V176h4.5v-44.7h-4.5V122.3z"/>
		<path fill="#CA4316" d="M493.5,176h4v8.8h-14v-5.5c-4.8,4.7-8,6.2-13.8,6.2c-9,0-16-6.2-16-14.3c0-13.2,15-14.7,29.5-16    c0-7-1.8-8.8-8.2-8.8c-4.8,0-7.8,2.5-8,7l-11-0.3c0.5-9,7.8-14.7,18.8-14.7c12.5,0,19.2,5.7,19.2,16L493.5,176L493.5,176z     M483,163c-10.8,1-17.5,2-17.5,8.2c0,3.8,3,6.2,7.5,6.2c5.8,0,10.2-4.3,10.2-10L483,163L483,163z"/>
		<path fill="#CA4316" d="M509.5,125h11v14.5h8.8v8.8h-8.8v23.2c0,3.2,1.8,4.7,5.2,4.7h3.5v8.2c-2.5,0.3-5,0.5-7,0.5    c-4.8,0-13.3,0-13.3-8.8V148h-5.5v-8.8h5.8L509.5,125L509.5,125z"/>
		<path fill="#CA4316" d="M546.2,139.3v-5.7c0-7.5,0-12,13-12c2.8,0,5,0,7,0.5v8.5c-6,0-8.5-0.3-8.5,4.3v4.3h7.5v8.8h-7.5v27.7h4.5    v8.8h-20v-8.8h4.2v-27.8h-6.2V139C540.2,139.3,546.2,139.3,546.2,139.3z"/>
		<path fill="#CA4316" d="M617.2,161.8c0,13.5-9.5,23.8-22.2,23.8c-13.2,0-22.8-10.3-22.8-23.8S582,138,595,138    C607.2,138,617.2,148.5,617.2,161.8z M583.8,161.8c0,8.5,4.2,14.3,10.8,14.3c6.8,0,11-5.5,11-14.3c0-8-4.5-14-11-14    S583.8,153.5,583.8,161.8z"/>
		<path fill="#CA4316" d="M639.5,146.5c3-5.7,6.2-8,11.2-8c1.5,0,2.8,0,5,0.5v10.5c-2-0.3-3.8-0.5-5.5-0.5c-6,0-11,4.3-11,9.3v17.5    h5.5v8.8h-21v-9h4.5V148H624v-8.8h15.2L639.5,146.5L639.5,146.5z"/>
		<path fill="#CA4316" d="M676.8,144.8c4.8-5,7.8-6.5,13-6.5c5,0,8,1.8,10.7,7c2.2-2.2,6.5-7,13.8-7c7.2,0,12.2,5.3,12.2,13V176h4.3    v8.8h-15.3v-30.5c0-4-1.8-6.5-4.7-6.5c-4.8,0-9,6-9,12.2v15.7h4.5v8.8h-15.5v-30c0-4.5-1.5-6.8-4.8-6.8c-5,0-9.3,6.2-9,13.2v14.7    h4.5v8.8h-19.3v-9h3.8v-27.8h-4V139h15L676.8,144.8L676.8,144.8z"/>
	</g>
</g>
<text transform="matrix(1 0 0 1 729 154)" fill="#CA4316" font-family="'MyriadPro-Regular'" font-size="43">®</text>
</svg>